<svg id="visual" viewBox="0 0 900 600" width="900" height="600" xmlns="http://www.w3.org/2000/svg" xmlns:xlink="http://www.w3.org/1999/xlink" version="1.1"><rect x="0" y="0" width="900" height="600" fill="#001220"></rect><path d="M0 437L21.5 425.5C43 414 86 391 128.8 386.2C171.7 381.3 214.3 394.7 257.2 400.3C300 406 343 404 385.8 397.3C428.7 390.7 471.3 379.3 514.2 385.3C557 391.3 600 414.7 642.8 428C685.7 441.3 728.3 444.7 771.2 443.8C814 443 857 438 878.5 435.5L900 433L900 601L878.5 601C857 601 814 601 771.2 601C728.3 601 685.7 601 642.8 601C600 601 557 601 514.2 601C471.3 601 428.7 601 385.8 601C343 601 300 601 257.2 601C214.3 601 171.7 601 128.8 601C86 601 43 601 21.5 601L0 601Z" fill="#fa7268"></path><path d="M0 471L21.5 471.7C43 472.3 86 473.7 128.8 461C171.7 448.3 214.3 421.7 257.2 421C300 420.3 343 445.7 385.8 446.7C428.7 447.7 471.3 424.3 514.2 424.8C557 425.3 600 449.7 642.8 459.7C685.7 469.7 728.3 465.3 771.2 455C814 444.7 857 428.3 878.5 420.2L900 412L900 601L878.5 601C857 601 814 601 771.2 601C728.3 601 685.7 601 642.8 601C600 601 557 601 514.2 601C471.3 601 428.7 601 385.8 601C343 601 300 601 257.2 601C214.3 601 171.7 601 128.8 601C86 601 43 601 21.5 601L0 601Z" fill="#ef5f67"></path><path d="M0 485L21.5 482.3C43 479.7 86 474.3 128.8 467.5C171.7 460.7 214.3 452.3 257.2 456.7C300 461 343 478 385.8 483.2C428.7 488.3 471.3 481.7 514.2 479C557 476.3 600 477.7 642.8 477.3C685.7 477 728.3 475 771.2 479.5C814 484 857 495 878.5 500.5L900 506L900 601L878.5 601C857 601 814 601 771.2 601C728.3 601 685.7 601 642.8 601C600 601 557 601 514.2 601C471.3 601 428.7 601 385.8 601C343 601 300 601 257.2 601C214.3 601 171.7 601 128.8 601C86 601 43 601 21.5 601L0 601Z" fill="#e34c67"></path><path d="M0 501L21.5 507.8C43 514.7 86 528.3 128.8 525C171.7 521.7 214.3 501.3 257.2 492.8C300 484.3 343 487.7 385.8 490.3C428.7 493 471.3 495 514.2 495.2C557 495.3 600 493.7 642.8 498.8C685.7 504 728.3 516 771.2 516C814 516 857 504 878.5 498L900 492L900 601L878.5 601C857 601 814 601 771.2 601C728.3 601 685.7 601 642.8 601C600 601 557 601 514.2 601C471.3 601 428.7 601 385.8 601C343 601 300 601 257.2 601C214.3 601 171.7 601 128.8 601C86 601 43 601 21.5 601L0 601Z" fill="#d53867"></path><path d="M0 529L21.5 531.2C43 533.3 86 537.7 128.8 543.3C171.7 549 214.3 556 257.2 556.8C300 557.7 343 552.3 385.8 549.8C428.7 547.3 471.3 547.7 514.2 549.5C557 551.3 600 554.7 642.8 551.2C685.7 547.7 728.3 537.3 771.2 539.8C814 542.3 857 557.7 878.5 565.3L900 573L900 601L878.5 601C857 601 814 601 771.2 601C728.3 601 685.7 601 642.8 601C600 601 557 601 514.2 601C471.3 601 428.7 601 385.8 601C343 601 300 601 257.2 601C214.3 601 171.7 601 128.8 601C86 601 43 601 21.5 601L0 601Z" fill="#c62368"></path></svg>